<svg xmlns="http://www.w3.org/2000/svg" xmlns:xlink="http://www.w3.org/1999/xlink" width="180.029296875" height="131.884765625"><path fill="white" d="M24.22 83.93Q24.22 82.46 24.68 81.19Q25.15 79.92 26.03 78.97Q26.90 78.02 28.22 77.48Q29.54 76.94 31.30 76.94Q33.06 76.94 34.40 77.48Q35.74 78.02 36.65 78.97Q37.55 79.92 38.01 81.19Q38.48 82.46 38.48 83.93Q38.48 85.34 38.01 86.59Q37.55 87.83 36.65 88.76Q35.74 89.69 34.40 90.20Q33.06 90.71 31.30 90.71Q29.54 90.71 28.22 90.20Q26.90 89.69 26.03 88.76Q25.15 87.83 24.68 86.59Q24.22 85.34 24.22 83.93ZM74.61 36.95L101.27 36.95L101.27 90.13Q101.27 95.21 99.88 99.11Q98.49 103.02 95.83 105.68Q93.16 108.34 89.33 109.73Q85.50 111.12 80.62 111.12Q77.83 111.12 75.42 110.95Q73.00 110.78 70.31 110.29L70.95 102.87Q71.78 103.02 73.05 103.14Q74.32 103.26 75.61 103.33Q76.90 103.41 78.10 103.43Q79.30 103.46 79.98 103.46Q82.52 103.46 84.77 102.80Q87.01 102.14 88.67 100.58Q90.33 99.01 91.28 96.45Q92.24 93.89 92.24 90.13L92.24 44.81L74.61 44.81L74.61 36.95M90.97 23.04Q90.97 20.84 92.29 19.30Q93.60 17.76 96.34 17.76Q99.07 17.76 100.44 19.30Q101.81 20.84 101.81 23.04Q101.81 25.23 100.44 26.72Q99.07 28.21 96.34 28.21Q93.60 28.21 92.29 26.72Q90.97 25.23 90.97 23.04ZM163.62 75.77Q163.62 74.16 162.99 72.87Q162.35 71.57 160.84 70.50Q159.33 69.42 156.84 68.52Q154.35 67.62 150.63 66.88Q146.09 65.96 142.36 64.64Q138.62 63.32 135.96 61.49Q133.30 59.66 131.84 57.19Q130.37 54.73 130.37 51.46Q130.37 48.23 131.88 45.42Q133.40 42.62 136.13 40.52Q138.87 38.42 142.65 37.20Q146.44 35.98 150.98 35.98Q155.86 35.98 159.77 37.25Q163.67 38.52 166.41 40.76Q169.14 43.01 170.63 46.01Q172.12 49.01 172.12 52.48L163.09 52.48Q163.09 50.77 162.21 49.14Q161.33 47.50 159.77 46.23Q158.20 44.96 155.98 44.18Q153.76 43.40 150.98 43.40Q148.10 43.40 145.92 44.03Q143.75 44.67 142.31 45.74Q140.87 46.82 140.14 48.23Q139.40 49.65 139.40 51.16Q139.40 52.72 139.99 53.95Q140.58 55.17 142.02 56.14Q143.46 57.12 145.87 57.90Q148.29 58.68 152.00 59.41Q156.88 60.44 160.74 61.78Q164.60 63.13 167.24 65.00Q169.87 66.88 171.26 69.38Q172.66 71.87 172.66 75.14Q172.66 78.65 171.07 81.53Q169.48 84.41 166.65 86.46Q163.82 88.52 159.86 89.64Q155.91 90.76 151.22 90.76Q145.85 90.76 141.65 89.32Q137.45 87.88 134.55 85.51Q131.64 83.14 130.10 80.02Q128.56 76.89 128.56 73.53L137.60 73.53Q137.79 76.31 139.09 78.21Q140.38 80.12 142.31 81.29Q144.24 82.46 146.58 82.95Q148.93 83.44 151.22 83.44Q156.93 83.44 160.25 81.34Q163.57 79.24 163.62 75.77Z"/></svg>