<svg xmlns="http://www.w3.org/2000/svg" xmlns:xlink="http://www.w3.org/1999/xlink" width="180.029296875" height="131.884765625"><path fill="white" d="M5.96 62.88Q5.96 57.17 7.62 52.26Q9.28 47.35 12.38 43.74Q15.48 40.13 19.92 38.05Q24.37 35.98 29.93 35.98Q35.55 35.98 40.01 38.05Q44.48 40.13 47.58 43.74Q50.68 47.35 52.34 52.26Q54.00 57.17 54.00 62.88L54.00 63.96Q54.00 69.67 52.34 74.55Q50.68 79.43 47.58 83.05Q44.48 86.66 40.04 88.71Q35.60 90.76 30.03 90.76Q24.41 90.76 19.95 88.71Q15.48 86.66 12.38 83.05Q9.28 79.43 7.62 74.55Q5.96 69.67 5.96 63.96L5.96 62.88M14.99 63.96Q14.99 67.86 15.92 71.40Q16.85 74.94 18.73 77.63Q20.61 80.31 23.44 81.88Q26.27 83.44 30.03 83.44Q33.74 83.44 36.55 81.88Q39.36 80.31 41.24 77.63Q43.12 74.94 44.04 71.40Q44.97 67.86 44.97 63.96L44.97 62.88Q44.97 59.02 44.02 55.48Q43.07 51.94 41.19 49.26Q39.31 46.57 36.50 44.99Q33.69 43.40 29.93 43.40Q26.17 43.40 23.39 44.99Q20.61 46.57 18.73 49.26Q16.85 51.94 15.92 55.48Q14.99 59.02 14.99 62.88L14.99 63.96ZM76.61 36.95L77.25 44.77Q80.13 40.66 84.33 38.34Q88.53 36.03 93.70 35.98Q97.85 35.98 101.25 37.15Q104.64 38.32 107.03 40.81Q109.42 43.30 110.72 47.13Q112.01 50.97 112.01 56.24L112.01 89.79L102.98 89.79L102.98 56.44Q102.98 52.92 102.20 50.48Q101.42 48.04 99.88 46.52Q98.34 45.01 96.12 44.33Q93.90 43.64 91.02 43.64Q86.47 43.64 83.03 45.91Q79.59 48.18 77.54 51.89L77.54 89.79L68.51 89.79L68.51 36.95L76.61 36.95ZM151.86 90.76Q146.29 90.76 141.63 88.86Q136.96 86.95 133.64 83.54Q130.32 80.12 128.47 75.43Q126.61 70.74 126.61 65.22L126.61 63.17Q126.61 56.78 128.66 51.72Q130.71 46.67 134.11 43.18Q137.50 39.69 141.82 37.83Q146.14 35.98 150.68 35.98Q156.40 35.98 160.67 37.95Q164.94 39.93 167.77 43.42Q170.61 46.91 172.00 51.65Q173.39 56.39 173.39 61.90L173.39 65.96L135.64 65.96Q135.79 69.57 137.04 72.74Q138.28 75.92 140.45 78.29Q142.63 80.65 145.65 82.02Q148.68 83.39 152.34 83.39Q157.18 83.39 160.94 81.44Q164.70 79.48 167.19 76.26L172.71 80.56Q171.39 82.56 169.41 84.39Q167.43 86.22 164.84 87.64Q162.26 89.05 158.98 89.91Q155.71 90.76 151.86 90.76M150.68 43.40Q147.95 43.40 145.51 44.40Q143.07 45.40 141.11 47.33Q139.16 49.26 137.82 52.07Q136.47 54.87 135.94 58.54L164.36 58.54L164.36 57.85Q164.21 55.21 163.35 52.63Q162.50 50.04 160.84 47.99Q159.18 45.94 156.67 44.67Q154.15 43.40 150.68 43.40Z"/></svg>